# xmcd CD database file
#
# Track frame offsets:
#	150
#	19023
#	44615
#	69362
#	87240
#	105465
#	130298
#	156060
#	178977
#	198574
#	224917
#	244769
#	262001
#
# Disc length: 3970 seconds
#
# Revision: 0
# Processed by: cddbd v1.5.2PL0 Copyright (c) Steve Scherf et al.
# Submitted via: CDex 1.70beta2
#
DISCID=c20f800d
DTITLE=Kent Hewitt - Time on My Hands
DYEAR=2006
DGENRE=Jazz
TTITLE0=Time on My Hands
TTITLE1=I Could Have Told You
TTITLE2=Wild is The Wind
TTITLE3=Once Upon a Summertime
TTITLE4=Everything l Love
TTITLE5=Detour Ahead
TTITLE6=Where Do You Start?
TTITLE7=Blue Daniel
TTITLE8=Never Let Me Go
TTITLE9=Dolphin Dance
TTITLE10=Quiet Now
TTITLE11=My Little Boat
TTITLE12=My Romance
EXTD=YEAR: 2006
EXTT0=
EXTT1=
EXTT2=
EXTT3=
EXTT4=
EXTT5=
EXTT6=
EXTT7=
EXTT8=
EXTT9=
EXTT10=
EXTT11=
EXTT12=
PLAYORDER=
